<?xml version="1.0" encoding="utf-8"?>
<!-- Generator: Adobe Illustrator 21.1.0, SVG Export Plug-In . SVG Version: 6.00 Build 0)  -->
<svg version="1.1" id="Warstwa_1" xmlns="http://www.w3.org/2000/svg" xmlns:xlink="http://www.w3.org/1999/xlink" x="0px" y="0px"
	 viewBox="0 0 62 19" style="enable-background:new 0 0 62 19;" xml:space="preserve">
<style type="text/css">
	.st0{fill:none;}
	.st1{fill:#89CC48;}
	.st2{fill:#FFFFFF;}
</style>
<polyline class="st0" points="-24.9,2.5 6.3,2.5 6.3,16.9 -24.9,16.9 "/>
<path class="st1" d="M56.8,16.6H5.6c-1.6,0-2.8-1.3-2.8-2.8V4.7c0-1.6,1.3-2.8,2.8-2.8h51.1c1.6,0,2.8,1.3,2.8,2.8v9.1
	C59.6,15.4,58.3,16.6,56.8,16.6z"/>
<g>
	<path class="st2" d="M27.3,9.9V7.9h2.3v2.1h1.3v1.9h-1.3v2.1h-2.3v-2.1h-4.6v-1.6l3-5.9h2.4l-2.9,5.7H27.3z"/>
</g>
<path class="st2" d="M16.8,11.2c0,0.2-0.1,0.4,0,0.5c0.1,0.1,0.3,0.1,0.5,0.2c0.6,0.3,0.9,1,0.8,1.7c-0.1,0.6-0.7,1.1-1.4,1.2
	c-0.6,0-1.3-0.4-1.5-1c-0.1-0.2-0.1-0.2-0.3-0.2c-0.9,0.2-1.6,0-2.3-0.6c-0.1-0.1-0.1-0.1,0-0.2c0.3-0.3,0.6-0.6,0.9-0.9
	c0.1-0.1,0.1-0.1,0.2,0c0.4,0.4,1,0.3,1.3,0c0.4-0.4,0.3-0.9-0.1-1.3c-0.8-0.8-1.5-1.6-2.3-2.3c-0.1-0.1-0.1-0.2,0-0.3
	c0.3-0.3,0.6-0.6,0.8-0.8c0.1-0.1,0.1-0.1,0.3,0c0.8,0.8,1.7,1.7,2.5,2.5C16.6,9.9,16.8,10.5,16.8,11.2z"/>
<path class="st2" d="M7.8,7.1c0-0.2,0-0.3,0-0.5c0-0.1,0-0.2-0.1-0.3c-0.7-0.2-1-0.8-1-1.5c0-0.6,0.5-1.2,1.1-1.3
	c0.8-0.2,1.6,0.2,1.8,1c0.1,0.2,0.1,0.2,0.3,0.2c0.8-0.1,1.5,0.1,2.1,0.7c0.1,0.1,0.1,0.2,0,0.3c-0.3,0.3-0.6,0.6-0.9,0.9
	c-0.1,0.1-0.1,0.1-0.2,0c-0.4-0.4-1-0.3-1.3,0c-0.3,0.4-0.3,0.9,0,1.3c0.8,0.8,1.6,1.6,2.3,2.3c0.1,0.1,0.1,0.2,0,0.3
	c-0.3,0.3-0.6,0.6-0.8,0.8c-0.1,0.1-0.1,0.1-0.3,0c-0.8-0.8-1.6-1.6-2.4-2.4C8,8.4,7.8,7.8,7.8,7.1z"/>
<path class="st2" d="M18,5c0,0.7-0.4,1.3-1.1,1.5c-0.2,0-0.2,0.1-0.2,0.3c0.2,0.8-0.1,1.6-0.6,2.2C16,9,15.9,9,15.8,8.9
	C15.5,8.6,15.3,8.3,15,8c-0.1-0.1-0.1-0.1,0-0.2c0.4-0.4,0.3-1-0.1-1.3c-0.4-0.3-0.9-0.3-1.3,0.1c-0.8,0.8-1.5,1.5-2.3,2.3
	c-0.1,0.1-0.2,0.1-0.3,0c-0.3-0.3-0.6-0.6-0.9-0.8c-0.1-0.1-0.1-0.1,0-0.2c0.8-0.8,1.7-1.7,2.5-2.5c0.6-0.6,1.3-0.7,2.1-0.6
	c0.2,0,0.2,0,0.3-0.2c0.2-0.7,0.9-1.2,1.7-1.1C17.4,3.6,18,4.2,18,5z"/>
<path class="st2" d="M6.7,13.2c0-0.6,0.4-1.2,0.9-1.4c0.2-0.1,0.2-0.2,0.2-0.3C7.7,10.7,7.9,10,8.5,9.4c0.1-0.1,0.1-0.1,0.2,0
	C9,9.7,9.3,10,9.6,10.3c0.1,0.1,0.1,0.1,0,0.2c-0.4,0.4-0.3,1,0,1.3c0.4,0.4,0.9,0.4,1.4-0.1c0.8-0.8,1.5-1.5,2.3-2.3
	c0.1-0.1,0.2-0.2,0.3,0c0.3,0.3,0.5,0.5,0.8,0.8c0.1,0.1,0.1,0.1,0,0.2c-0.8,0.8-1.6,1.6-2.5,2.4c-0.6,0.6-1.3,0.8-2.1,0.6
	c-0.2,0-0.2,0-0.2,0.1c-0.2,0.6-0.7,1-1.3,1c-0.7,0-1.2-0.3-1.5-0.9C6.8,13.6,6.7,13.4,6.7,13.2z"/>
<g>
	<path class="st2" d="M38.4,9.5v2.7h-1.3v-0.5c-0.3,0.4-0.7,0.5-1.3,0.5c-0.9,0-1.4-0.5-1.4-1.3c0-0.8,0.6-1.2,1.6-1.2h1.1V9.6
		c0-0.4-0.3-0.6-0.8-0.6c-0.3,0-0.8,0.1-1.2,0.3l-0.4-0.9C35.4,8.2,35.9,8,36.6,8C37.7,8,38.4,8.6,38.4,9.5z M37.1,10.8v-0.4h-0.8
		c-0.4,0-0.6,0.1-0.6,0.4c0,0.3,0.2,0.5,0.6,0.5C36.7,11.3,37,11.1,37.1,10.8z"/>
	<path class="st2" d="M39.4,12.2V6.5h1.3v5.7H39.4z"/>
	<path class="st2" d="M46.3,10.1c0,1.2-0.7,2.1-1.9,2.1c-0.5,0-1-0.2-1.3-0.6v2h-1.3V8.1h1.3v0.5C43.4,8.2,43.9,8,44.4,8
		C45.5,8,46.3,8.9,46.3,10.1z M45,10.1C45,9.5,44.6,9,44.1,9c-0.5,0-0.9,0.4-0.9,1.1c0,0.6,0.4,1.1,0.9,1.1
		C44.6,11.2,45,10.7,45,10.1z"/>
	<path class="st2" d="M51.3,9.6v2.6h-1.3V9.9c0-0.5-0.3-0.8-0.7-0.8c-0.5,0-0.8,0.4-0.8,1v2h-1.3V6.5h1.3v2.2
		C48.7,8.3,49.1,8,49.8,8C50.7,8,51.3,8.6,51.3,9.6z"/>
	<path class="st2" d="M55.8,9.5v2.7h-1.3v-0.5c-0.3,0.4-0.7,0.5-1.3,0.5c-0.9,0-1.4-0.5-1.4-1.3c0-0.8,0.6-1.2,1.6-1.2h1.1V9.6
		c0-0.4-0.3-0.6-0.8-0.6c-0.3,0-0.8,0.1-1.2,0.3l-0.4-0.9C52.8,8.2,53.3,8,54,8C55.2,8,55.8,8.6,55.8,9.5z M54.5,10.8v-0.4h-0.8
		c-0.4,0-0.6,0.1-0.6,0.4c0,0.3,0.2,0.5,0.6,0.5C54.1,11.3,54.4,11.1,54.5,10.8z"/>
</g>
</svg>
